<?xml version="1.0" standalone="no"?>
<!DOCTYPE svg PUBLIC "-//W3C//DTD SVG 1.1//EN" "http://www.w3.org/Graphics/SVG/1.1/DTD/svg11.dtd" >
<svg xmlns="http://www.w3.org/2000/svg">
<metadata>Generated by IcoMoon</metadata>
<defs>
<font id="icomoon" horiz-adv-x="1024">
<font-face units-per-em="1024" ascent="960" descent="-64" />
<missing-glyph horiz-adv-x="1024" />
<glyph unicode="&#x20;" horiz-adv-x="512" d="" />
<glyph unicode="&#xe900;" glyph-name="arrow-down" d="M590.848 173.261c-20.301-19.91-48.139-32.199-78.848-32.199s-58.547 12.289-78.866 32.217l-399.342 395.042c-20.489 19.514-33.231 47.002-33.231 77.465 0 15.229 3.184 29.714 8.923 42.826 17.085 39.209 56.158 66.6 101.628 66.6 0.537 0 1.073-0.004 1.609-0.011l798.639 0.001c0.403 0.005 0.878 0.008 1.355 0.008 45.626 0 84.811-27.579 101.793-66.975 5.747-13.143 8.931-27.629 8.931-42.857 0-30.464-12.742-57.951-33.187-77.424z" />
<glyph unicode="&#xe901;" glyph-name="arrow-left" horiz-adv-x="614" d="M32.461 368.947c-19.97 20.312-32.299 48.191-32.299 78.95s12.329 58.639 32.315 78.966l-0.015-0.016 395.059 399.36c19.407 20.286 46.694 32.896 76.927 32.896 15.44 0 30.111-3.289 43.352-9.204l-0.675 0.27c40.068-16.828 67.694-55.745 67.694-101.114 0-0.452-0.003-0.904-0.008-1.355l0.001 0.069v-798.72c0.011-0.575 0.017-1.252 0.017-1.932 0-45.336-27.638-84.217-66.984-100.713l-0.72-0.268c-12.566-5.646-27.237-8.934-42.677-8.934-30.232 0-57.52 12.61-76.889 32.857l-0.037 0.039z" />
<glyph unicode="&#xe902;" glyph-name="arrow-right" horiz-adv-x="614" d="M581.939 368.947c19.97 20.312 32.299 48.191 32.299 78.95s-12.329 58.639-32.315 78.966l0.015-0.016-395.059 399.36c-19.422 20.275-46.715 32.876-76.951 32.876-15.429 0-30.092-3.281-43.329-9.184l0.677 0.27c-40.122-16.804-67.796-55.748-67.796-101.156 0-0.438 0.003-0.875 0.008-1.311l-0.001 0.067v-798.72c-0.010-0.542-0.015-1.181-0.015-1.822 0-45.392 27.681-84.32 67.083-100.823l0.721-0.268c12.56-5.633 27.223-8.914 42.652-8.914 30.236 0 57.529 12.601 76.915 32.838l0.036 0.038z" />
<glyph unicode="&#xe903;" glyph-name="arrow-up" d="M590.848 722.739c-20.301 19.91-48.139 32.199-78.848 32.199s-58.547-12.289-78.866-32.217l-399.342-395.042c-20.507-19.516-33.262-47.016-33.262-77.495 0-15.257 3.196-29.767 8.955-42.898 16.99-39.429 56.175-67.008 101.801-67.008 0.476 0 0.952 0.003 1.427 0.009l798.648-0.001c0.403-0.005 0.878-0.008 1.355-0.008 45.626 0 84.811 27.579 101.793 66.975 5.766 13.163 8.962 27.673 8.962 42.93 0 30.479-12.755 57.979-33.218 77.453z" />
<glyph unicode="&#xe904;" glyph-name="asterisk" d="M321.829-66.048l194.999 333.678 190.171-333.678 220.306 151.259-199.095 315.831 296.521 97.865-76.215 257.902-305.006-137.801 21.065 342.455h-300.325l21.211-342.455-309.394 137.801-76.069-257.902 300.763-97.865-199.095-315.831z" />
<glyph unicode="&#xe905;" glyph-name="dashboard" d="M921.6-64h-563.2v665.6h665.6v-563.2c0-56.554-45.846-102.4-102.4-102.4v0zM358.4 960h563.2c56.554 0 102.4-45.846 102.4-102.4v0-153.6h-665.6v256zM0 38.4v819.2c0 56.554 45.846 102.4 102.4 102.4v0h153.6v-1024h-153.6c-56.554 0-102.4 45.846-102.4 102.4v0z" />
<glyph unicode="&#xe906;" glyph-name="close" d="M576.853 450.645l430.933-430.763c7.625-8.162 12.306-19.158 12.306-31.247 0-25.308-20.516-45.824-45.824-45.824-12.132 0-23.162 4.714-31.36 12.411l-430.909 430.655-432.64-433.237c-8.388-8.452-20.010-13.684-32.853-13.684-25.56 0-46.281 20.721-46.281 46.281 0 12.716 5.129 24.235 13.43 32.6l433.49 433.234-428.373 427.861c-7.925 8.433-12.794 19.819-12.794 32.341s4.869 23.908 12.817 32.366c8.281 8.262 19.744 13.386 32.404 13.386s24.122-5.124 32.427-13.411l428.373-427.349 430.080 430.336c8.276 8.348 19.748 13.517 32.427 13.517s24.151-5.169 32.423-13.514c8.674-8.191 14.071-19.766 14.071-32.601s-5.397-24.409-14.046-32.577z" />
<glyph unicode="&#xe907;" glyph-name="calendar" d="M910.222-64h-796.444c-62.838 0-113.778 50.94-113.778 113.778v0 682.667c0 62.838 50.94 113.778 113.778 113.778v0h56.889c0-62.838 50.94-113.778 113.778-113.778s113.778 50.94 113.778 113.778v0h227.556c0-62.838 50.94-113.778 113.778-113.778s113.778 50.94 113.778 113.778v0h56.889c0.118 0 0.259 0.001 0.399 0.001 62.618 0 113.38-50.762 113.38-113.38 0-0.14 0-0.28-0.001-0.421v0.022-682.667c0-62.838-50.94-113.778-113.778-113.778v0zM284.444 476.444c0 15.709-12.735 28.444-28.444 28.444v0h-56.889c-15.709 0-28.444-12.735-28.444-28.444v0-56.889c0-15.709 12.735-28.444 28.444-28.444v0h56.889c15.709 0 28.444 12.735 28.444 28.444v0 56.889zM284.444 192c0 15.709-12.735 28.444-28.444 28.444v0h-56.889c-15.709 0-28.444-12.735-28.444-28.444v0-56.889c0-15.709 12.735-28.444 28.444-28.444v0h56.889c15.709 0 28.444 12.735 28.444 28.444v0 56.889zM568.889 476.444c0 15.709-12.735 28.444-28.444 28.444v0h-56.889c-15.709 0-28.444-12.735-28.444-28.444v0-56.889c0-15.709 12.735-28.444 28.444-28.444v0h56.889c15.709 0 28.444 12.735 28.444 28.444v0 56.889zM568.889 192c0 15.709-12.735 28.444-28.444 28.444v0h-56.889c-15.709 0-28.444-12.735-28.444-28.444v0-56.889c0-15.709 12.735-28.444 28.444-28.444v0h56.889c15.709 0 28.444 12.735 28.444 28.444v0 56.889zM853.333 476.444c0 15.709-12.735 28.444-28.444 28.444v0h-56.889c-15.709 0-28.444-12.735-28.444-28.444v0-56.889c0-15.709 12.735-28.444 28.444-28.444v0h56.889c15.709 0 28.444 12.735 28.444 28.444v0 56.889zM853.333 192c0 15.709-12.735 28.444-28.444 28.444v0h-56.889c-15.709 0-28.444-12.735-28.444-28.444v0-56.889c0-15.709 12.735-28.444 28.444-28.444v0h56.889c15.709 0 28.444 12.735 28.444 28.444v0 56.889zM739.556 789.333c-31.419 0-56.889 25.47-56.889 56.889v0 56.889c0 31.419 25.47 56.889 56.889 56.889s56.889-25.47 56.889-56.889v0-56.889c0-31.419-25.47-56.889-56.889-56.889v0zM284.444 789.333c-31.419 0-56.889 25.47-56.889 56.889v0 56.889c0 31.419 25.47 56.889 56.889 56.889s56.889-25.47 56.889-56.889v0-56.889c0-31.419-25.47-56.889-56.889-56.889v0z" />
<glyph unicode="&#xe908;" glyph-name="delete" d="M864 768h128v64h-256v128h-448v-128h-256v-64h128v-832h704v832zM224 768h576v-768h-576v768zM352 896h320v-64h-320v64z" />
<glyph unicode="&#xe909;" glyph-name="edit" d="M0.64-63.296l0.64 306.496 732.16 717.312 291.2-291.008-716.16-733.504zM951.68 669.504l-218.24 218.24-72.32-72.704 217.6-218.24zM624.64 778.304l-572.16-586.304 51.2-153.6 153.6-51.2 585.6 573.184z" />
<glyph unicode="&#xe90a;" glyph-name="report" d="M972.8-64h-921.6c-28.277 0-51.2 22.923-51.2 51.2s22.923 51.2 51.2 51.2v0h51.2v665.6c0 28.277 22.923 51.2 51.2 51.2v0h102.4c28.277 0 51.2-22.923 51.2-51.2v0-665.6h102.4v870.4c0 28.277 22.923 51.2 51.2 51.2v0h102.4c28.277 0 51.2-22.923 51.2-51.2v0-870.4h102.4v409.6c0 28.277 22.923 51.2 51.2 51.2v0h102.4c28.277 0 51.2-22.923 51.2-51.2v0-409.6h51.2c28.277 0 51.2-22.923 51.2-51.2s-22.923-51.2-51.2-51.2v0z" />
<glyph unicode="&#xe90b;" glyph-name="key" horiz-adv-x="1026" d="M133.76-58.944c0.96 0.165 1.819 0.454 2.612 0.856l153.548 61.672c8.619 3.835 15.365 10.581 19.106 18.963l39.134 90.861 89.6 39.488c8.46 3.632 15.039 10.294 18.476 18.587l39.124 90.853 90.24 39.488c8.32 3.841 14.827 10.431 18.466 18.582l28.254 66.090c29.965-11.482 64.625-18.132 100.839-18.132 81.092 0 154.396 33.345 206.949 87.071 52.882 53.92 85.488 127.786 85.488 209.269s-32.607 155.349-85.484 209.264c-52.738 53.374-126.002 86.46-206.993 86.46s-154.255-33.086-207.011-86.479c-53.117-53.647-85.917-127.438-85.917-208.89 0-41.512 8.519-81.034 23.905-116.912l-433.377-435.507c-18.729-18.815-30.308-44.761-30.308-73.412 0-28.331 11.321-54.017 29.686-72.782 18.383-18.736 43.993-30.36 72.318-30.36 11.204 0 21.983 1.819 32.059 5.177zM81.28 61.12l450.56 455.616c6.528 6.627 10.559 15.73 10.559 25.774 0 6.205-1.539 12.052-4.255 17.178-16.353 30.205-26.022 66.359-26.022 104.772 0 61.632 24.891 117.45 65.168 157.951 39.792 40.308 95.054 65.282 156.15 65.282s116.358-24.973 156.137-65.268c39.747-40.607 64.259-96.218 64.259-157.554 0-61.657-24.769-117.528-64.9-158.207-39.605-40.583-94.879-65.768-156.036-65.768-37.519 0-72.824 9.479-103.651 26.172-3.685 2.108-9.454 3.684-15.59 3.684-14.653 0-27.208-8.986-32.453-21.749l-37.205-86.442-89.6-39.424c-8.692-3.723-15.477-10.508-19.111-18.966l-39.129-90.858-89.6-39.488c-8.32-3.841-14.827-10.431-18.466-18.582l-38.494-90.282-138.24-55.68c-2.749-0.893-5.912-1.408-9.195-1.408-16.966 0-30.72 13.754-30.72 30.72 0 8.892 3.778 16.901 9.816 22.511zM860.16 614.336c23.207 23.093 37.568 55.057 37.568 90.375 0 70.41-57.078 127.488-127.488 127.488s-127.488-57.078-127.488-127.488c0-35.318 14.361-67.281 37.563-90.37 23.105-22.8 54.855-36.878 89.893-36.878 35.070 0 66.846 14.104 89.965 36.949zM724.48 750.848c11.34 11.734 27.219 19.020 44.8 19.020s33.46-7.285 44.783-19.002c11.598-11.895 18.741-28.146 18.741-46.066s-7.143-34.171-18.738-46.062c-11.327-11.72-27.206-19.006-44.787-19.006s-33.46 7.285-44.783 19.002c-11.452 11.959-18.492 28.19-18.492 46.066s7.040 34.106 18.498 46.072z" />
<glyph unicode="&#xe90c;" glyph-name="move" d="M580.267 38.4c0 56.554 45.846 102.4 102.4 102.4s102.4-45.846 102.4-102.4c0-56.554-45.846-102.4-102.4-102.4s-102.4 45.846-102.4 102.4zM238.933 448c0 56.554 45.846 102.4 102.4 102.4s102.4-45.846 102.4-102.4c0-56.554-45.846-102.4-102.4-102.4s-102.4 45.846-102.4 102.4zM580.267 448c0 56.554 45.846 102.4 102.4 102.4s102.4-45.846 102.4-102.4c0-56.554-45.846-102.4-102.4-102.4s-102.4 45.846-102.4 102.4zM238.933 857.6c0 56.554 45.846 102.4 102.4 102.4s102.4-45.846 102.4-102.4c0-56.554-45.846-102.4-102.4-102.4s-102.4 45.846-102.4 102.4zM580.267 857.6c0 56.554 45.846 102.4 102.4 102.4s102.4-45.846 102.4-102.4c0-56.554-45.846-102.4-102.4-102.4s-102.4 45.846-102.4 102.4zM443.733 38.4c0-56.554-45.846-102.4-102.4-102.4s-102.4 45.846-102.4 102.4c0 56.554 45.846 102.4 102.4 102.4s102.4-45.846 102.4-102.4z" />
<glyph unicode="&#xe90d;" glyph-name="pa" d="M1000.909 21.914c-22.379-50.974-72.415-85.931-130.615-85.931-0.773 0-1.544 0.006-2.313 0.018l0.116-0.001h-712.602c-58.581 0.721-108.925 35.257-132.48 84.961l-0.384 0.902c-14.254 24.691-22.663 54.307-22.663 85.888s8.409 61.197 23.111 86.732l-0.448-0.844 356.301 680.448c25.208 49.616 74.915 83.545 132.762 85.904l0.307 0.010c58.581-0.721 108.925-35.257 132.48-84.961l0.384-0.902 356.301-680.448c14.174-24.636 22.535-54.173 22.535-85.662 0-31.672-8.458-61.368-23.239-86.953l0.447 0.84zM563.2 601.6c0 28.277-22.923 51.2-51.2 51.2s-51.2-22.923-51.2-51.2v0-256c0-28.277 22.923-51.2 51.2-51.2s51.2 22.923 51.2 51.2v0 256zM512 192c-28.277 0-51.2-22.923-51.2-51.2s22.923-51.2 51.2-51.2c28.277 0 51.2 22.923 51.2 51.2v0c0 28.277-22.923 51.2-51.2 51.2v0z" />
<glyph unicode="&#xe90e;" glyph-name="gear" d="M896 294.4h-17.766l5.12-5.12c22.679-22.674 36.706-53.999 36.706-88.602s-14.028-65.928-36.706-88.601l-35.431-35.431c-22.674-22.679-53.999-36.706-88.602-36.706s-65.928 14.028-88.601 36.706l-5.12 5.12v-17.766c0-70.692-57.308-128-128-128v0h-51.2c-70.692 0-128 57.308-128 128v0 19.302l-6.656-6.656c-22.674-22.679-53.999-36.706-88.602-36.706s-65.928 14.028-88.601 36.706l-35.431 35.431c-22.679 22.674-36.706 53.999-36.706 88.602s14.028 65.928 36.706 88.601l5.12 5.12h-16.23c-70.692 0-128 57.308-128 128v0 51.2c0 70.692 57.308 128 128 128v0h17.766l-6.656 6.656c-22.669 22.687-36.689 54.020-36.689 88.627s14.020 65.94 36.69 88.628l35.43 35.43c22.674 22.679 53.999 36.706 88.602 36.706s65.928-14.028 88.601-36.706l6.656-6.656v17.715c0 70.692 57.308 128 128 128v0h51.2c70.692 0 128-57.308 128-128v0-16.179l5.12 5.12c22.674 22.679 53.999 36.706 88.602 36.706s65.928-14.028 88.601-36.706l35.431-35.431c22.682-22.682 36.711-54.016 36.711-88.627s-14.029-65.946-36.711-88.627l-6.656-6.656h19.302c70.692 0 128-57.308 128-128v0-51.2c0-70.692-57.308-128-128-128v0zM512 601.6c-84.831 0-153.6-68.769-153.6-153.6s68.769-153.6 153.6-153.6c84.831 0 153.6 68.769 153.6 153.6v0c0 84.831-68.769 153.6-153.6 153.6v0z" />
<glyph unicode="&#xe90f;" glyph-name="search" d="M1014.4-54.4c-5.784-5.751-13.757-9.305-22.56-9.305s-16.776 3.555-22.562 9.307l-283.838 283.838c-72.959-62.519-168.486-100.572-272.901-100.572-232.26 0-420.544 188.284-420.544 420.544s188.284 420.544 420.544 420.544c232.26 0 420.544-188.284 420.544-420.544 0-105.468-38.824-201.868-102.961-275.687l284.278-283.325c5.656-5.767 9.147-13.676 9.147-22.4s-3.491-16.633-9.152-22.405zM768 544c0 194.404-157.596 352-352 352s-352-157.596-352-352c0-194.404 157.596-352 352-352 193.323 2.666 349.334 158.677 351.997 351.747z" />
<glyph unicode="&#xe910;" glyph-name="lock-o" d="M796.444-64h-568.889c-94.257 0-170.667 76.41-170.667 170.667v284.444c0 94.257 76.41 170.667 170.667 170.667v113.778c0 157.094 127.35 284.444 284.444 284.444s284.444-127.35 284.444-284.444v-113.778c94.257 0 170.667-76.41 170.667-170.667v-284.444c0-94.257-76.41-170.667-170.667-170.667zM739.556 675.556c0 125.675-101.88 227.556-227.556 227.556s-227.556-101.88-227.556-227.556v-113.778h455.111v113.778zM910.222 391.111c0 62.838-50.94 113.778-113.778 113.778h-568.889c-62.838 0-113.778-50.94-113.778-113.778v-284.444c0-62.838 50.94-113.778 113.778-113.778h568.889c62.838 0 113.778 50.94 113.778 113.778v284.444z" />
<glyph unicode="&#xe911;" glyph-name="email-o" d="M853.333-7.111h-682.667c-94.257 0-170.667 76.41-170.667 170.667v568.889c0 94.257 76.41 170.667 170.667 170.667h682.667c94.257 0 170.667-76.41 170.667-170.667v-568.889c0-94.257-76.41-170.667-170.667-170.667zM967.111 732.444c0 62.838-50.94 113.778-113.778 113.778h-682.667c-62.838 0-113.778-50.94-113.778-113.778v-568.889c0-62.838 50.94-113.778 113.778-113.778h682.667c62.838 0 113.778 50.94 113.778 113.778v568.889zM532.48 399.474c-5.591-5.113-13.068-8.245-21.276-8.245s-15.685 3.132-21.301 8.267l-311.784 168.711c-4.907 5.614-7.9 13.010-7.9 21.106s2.993 15.492 7.933 21.143c4.576 5.322 11.364 8.696 18.94 8.696s14.365-3.374 18.945-8.701l295.167-157.786 295.14 157.753c4.608 5.36 11.396 8.734 18.972 8.734s14.365-3.374 18.945-8.701c4.903-5.66 7.873-13.052 7.873-21.139s-2.97-15.479-7.879-21.146z" />
<glyph unicode="&#xe912;" glyph-name="email" d="M170.667 903.111c-94.257 0-170.667-76.41-170.667-170.667v-568.889c0-94.257 76.41-170.667 170.667-170.667h682.667c94.257 0 170.667 76.41 170.667 170.667v568.889c0 94.257-76.41 170.667-170.667 170.667h-682.667zM844.288 568.206l-311.808-168.732c-5.591-5.113-13.068-8.245-21.276-8.245s-15.685 3.132-21.301 8.267l-311.784 168.711c-4.886 5.622-7.863 13.016-7.863 21.106s2.978 15.483 7.897 21.145c4.574 5.32 11.363 8.694 18.939 8.694s14.365-3.374 18.945-8.701l295.167-157.786 295.14 157.753c4.608 5.36 11.396 8.734 18.972 8.734s14.365-3.374 18.945-8.701c4.903-5.66 7.873-13.052 7.873-21.139s-2.97-15.479-7.879-21.146z" />
<glyph unicode="&#xe913;" glyph-name="hide" d="M788.651 686.933c91.007-67.732 168.757-146.622 233.179-235.777s-227.035-344.489-509.829-344.489c-86.286 2.866-165.797 29.55-232.841 73.641l-117.765-120.517c-5.011-4.902-11.876-7.926-19.447-7.926-15.364 0-27.819 12.455-27.819 27.819 0 7.557 3.013 14.41 7.904 19.424l739.55 739.55c5.037 5.037 11.997 8.153 19.684 8.153 15.374 0 27.837-12.463 27.837-27.837 0-7.687-3.116-14.646-8.153-19.684zM512 163.556c249.515 0 455.111 284.444 455.111 284.444-60.868 78.644-131.816 145.667-211.761 200.529l-105.565-100.348c20.669-27.827 33.087-62.856 33.087-100.785 0-93.911-76.13-170.041-170.041-170.041-37.929 0-72.958 12.419-101.242 33.412l-92.443-93.28c55.438-32.199 121.637-51.968 192.288-53.918zM512 732.444c-249.515 0-455.111-284.444-455.111-284.444 33.575-44.104 69.014-83.15 107.518-118.942l-33.164-34.26c-47.529 46.099-90.641 96.179-128.995 149.889s226.957 344.646 509.752 344.646c35.619-0.218 69.964-5.293 102.525-14.594l-50.074-46.732c-15.681 2.689-33.824 4.298-52.318 4.437z" />
<glyph unicode="&#xe914;" glyph-name="lock" d="M796.444-64h-568.889c-94.257 0-170.667 76.41-170.667 170.667v284.444c0 94.257 76.41 170.667 170.667 170.667v113.778c0 157.094 127.35 284.444 284.444 284.444s284.444-127.35 284.444-284.444v-113.778c94.257 0 170.667-76.41 170.667-170.667v-284.444c0-94.257-76.41-170.667-170.667-170.667zM512 903.111c-125.675 0-227.556-101.88-227.556-227.556v-113.778h455.111v113.778c0 125.675-101.88 227.556-227.556 227.556z" />
<glyph unicode="&#xe915;" glyph-name="show" d="M512 789.333c-282.795 0-512-341.333-512-341.333s229.205-341.333 512-341.333c282.795 0 512 341.333 512 341.333s-229.205 341.333-512 341.333zM512 732.444c249.515 0 455.111-284.444 455.111-284.444s-205.596-284.444-455.111-284.444-455.111 284.444-455.111 284.444 205.596 284.444 455.111 284.444zM512 618.667c94.257 0 170.667-76.41 170.667-170.667s-76.41-170.667-170.667-170.667c-94.257 0-170.667 76.41-170.667 170.667s76.41 170.667 170.667 170.667z" />
<glyph unicode="&#xe916;" glyph-name="clock-o" d="M512-64c-282.77 0-512 229.23-512 512s229.23 512 512 512c282.77 0 512-229.23 512-512v0c0-282.77-229.23-512-512-512v0zM512 896c-247.424 0-448-200.576-448-448s200.576-448 448-448c247.424 0 448 200.576 448 448v0c0 247.424-200.576 448-448 448v0zM704 384h-192c-35.346 0-64 28.654-64 64v0 256c0 35.346 28.654 64 64 64s64-28.654 64-64v0-192h128c35.346 0 64-28.654 64-64s-28.654-64-64-64v0z" />
<glyph unicode="&#xe917;" glyph-name="ellipsis" d="M128 576c-70.692 0-128-57.308-128-128s57.308-128 128-128c70.692 0 128 57.308 128 128-0.213 70.606-57.394 127.787-127.979 128zM896 576c-70.692 0-128-57.308-128-128s57.308-128 128-128c70.692 0 128 57.308 128 128-0.213 70.606-57.394 127.787-127.979 128zM512 576c-70.692 0-128-57.308-128-128s57.308-128 128-128c70.692 0 128 57.308 128 128-0.213 70.606-57.394 127.787-127.979 128z" />
<glyph unicode="&#xe918;" glyph-name="order" horiz-adv-x="683" d="M607.659 533.333h-532.736c-0.022 0-0.048 0-0.074 0-30.97 0-57.433 19.296-68.022 46.521-3.889 9.204-6.051 19.335-6.051 29.97 0 20.879 8.332 39.813 21.853 53.656l266.396 274.332c13.286 13.844 31.943 22.445 52.608 22.445s39.322-8.602 52.584-22.42l266.349-274.372c13.602-13.758 22.005-32.681 22.005-53.567 0-10.669-2.192-20.825-6.151-30.044-10.596-27.232-37.077-46.526-68.063-46.526-0.245 0-0.49 0.001-0.734 0.004zM75.008 362.667h532.736c0.022 0 0.048 0 0.074 0 30.97 0 57.433-19.296 68.022-46.521 3.889-9.204 6.051-19.335 6.051-29.97 0-20.879-8.332-39.813-21.853-53.656l-266.396-274.332c-13.286-13.844-31.943-22.445-52.608-22.445s-39.322 8.602-52.584 22.42l-266.349 274.372c-13.602 13.758-22.005 32.681-22.005 53.567 0 10.669 2.192 20.825 6.151 30.044 10.596 27.232 37.077 46.526 68.063 46.526 0.245 0 0.49-0.001 0.734-0.004z" />
<glyph unicode="&#xe919;" glyph-name="order-down" horiz-adv-x="683" d="M393.984 257.195c-13.286-13.844-31.943-22.445-52.608-22.445s-39.322 8.602-52.584 22.42l-266.349 274.372c-13.602 13.758-22.005 32.681-22.005 53.567 0 10.669 2.192 20.825 6.151 30.044 10.597 27.23 37.077 46.523 68.062 46.523 0.005 0 0.011 0 0.016 0h532.735c0.022 0 0.048 0 0.074 0 30.97 0 57.433-19.296 68.022-46.521 3.889-9.204 6.051-19.335 6.051-29.97 0-20.879-8.332-39.813-21.853-53.656z" />
<glyph unicode="&#xe91a;" glyph-name="order-up" horiz-adv-x="683" d="M393.984 638.805c-13.286 13.844-31.943 22.445-52.608 22.445s-39.322-8.602-52.584-22.42l-266.349-274.372c-13.602-13.758-22.005-32.681-22.005-53.567 0-10.669 2.192-20.825 6.151-30.044 10.597-27.23 37.077-46.523 68.062-46.523 0.005 0 0.011 0 0.016 0h532.735c0.022 0 0.048 0 0.074 0 30.97 0 57.433 19.296 68.022 46.521 3.889 9.204 6.051 19.335 6.051 29.97 0 20.879-8.332 39.813-21.853 53.656z" />
<glyph unicode="&#xe91b;" glyph-name="info" d="M512 960c-282.77 0-512-229.23-512-512s229.23-512 512-512c282.77 0 512 229.23 512 512s-229.23 512-512 512zM632.256 197.76l-8.128-36.544q-36.48-15.872-58.176-24.192c-14.21-5.287-30.626-8.347-47.757-8.347-0.963 0-1.924 0.010-2.882 0.029-1.583-0.115-3.599-0.179-5.63-0.179-24.189 0-46.259 9.073-62.992 24.002-15.054 14.557-24.458 35.054-24.458 57.748 0 0.887 0.014 1.77 0.043 2.65 0.002 10.119 0.653 20.208 1.911 30.108 1.158 8.739 3.078 19.875 5.83 32.355l30.4 118.656q4.032 17.024 6.848 32c1.668 8.329 2.666 17.94 2.752 27.769 0.169 1.549 0.264 3.263 0.264 4.999 0 10.172-3.291 19.575-8.867 27.203-7.378 5.65-16.878 9.136-27.192 9.136-1.843 0-3.659-0.111-5.443-0.327-8.468-0.067-16.774-1.559-24.525-4.24-7.708-2.523-14.748-5.083-20.7-7.515l8.128 36.544q29.824 13.44 57.152 22.976c15.348 5.819 33.088 9.295 51.608 9.535 1.902 0.126 4 0.197 6.116 0.197 23.723 0 45.358-8.939 61.722-23.631 14.624-14.681 23.718-35.043 23.718-57.528 0-1.102-0.022-2.198-0.065-3.289 0.005-5.027-0.507-14.051-1.659-27.043-1.125-13.239-3.39-25.417-6.733-37.142l-29.939-116.842c-2.432-9.472-4.672-20.352-6.4-32.512-1.562-8.119-2.619-17.639-2.936-27.347-0.189-1.771-0.292-3.474-0.292-5.2 0-10.342 3.711-19.817 9.874-27.166 7.873-5.447 17.702-8.741 28.3-8.741 1.69 0 3.36 0.084 5.006 0.247 8.808 0.216 17.382 1.767 25.438 4.451 7.259 1.967 14.001 4.478 20.448 7.511zM639.936 693.824c0.008-0.409 0.013-0.892 0.013-1.376 0-20.003-8.1-38.115-21.198-51.233-12.523-13.41-30.309-21.769-50.048-21.769-0.405 0-0.809 0.004-1.212 0.011-0.184-0.004-0.473-0.006-0.762-0.006-19.84 0-37.73 8.351-50.345 21.731-13.258 13.641-21.413 32.237-21.413 52.738s8.155 39.097 21.398 52.722c12.581 13.507 30.492 21.939 50.373 21.939 0.285 0 0.569-0.002 0.853-0.005 0.288 0.006 0.679 0.010 1.071 0.010 19.787 0 37.603-8.439 50.044-21.915 13.18-13.277 21.3-31.506 21.3-51.631 0-0.427-0.004-0.854-0.011-1.279z" />
<glyph unicode="&#xe91c;" glyph-name="ban" d="M1024 448c0-282.77-229.23-512-512-512s-512 229.23-512 512c0 282.77 229.23 512 512 512s512-229.23 512-512zM512 0c0.639-0.003 1.395-0.005 2.151-0.005 246.257 0 445.888 199.631 445.888 445.888 0 113.3-42.258 216.73-111.873 295.389l-628.967-629.847c77.605-68.863 180.24-111.046 292.721-111.424zM512 896c-0.639 0.003-1.395 0.005-2.151 0.005-246.257 0-445.888-199.631-445.888-445.888 0-113.3 42.258-216.73 111.873-295.389l628.967 629.847c-77.605 68.863-180.24 111.046-292.721 111.424z" />
<glyph unicode="&#xe91d;" glyph-name="retry" d="M948.416 651.584c-6.435-6.597-15.412-10.689-25.345-10.689-0.090 0-0.179 0-0.269 0.001l-182.706-0.896c-0.23-0.006-0.502-0.009-0.774-0.009-14.588 0-27.069 9.022-32.168 21.791-1.814 4.265-2.821 8.957-2.821 13.885 0 10.020 4.164 19.067 10.855 25.506l85.899 85.899c-76.922 67.271-178.151 108.454-288.989 108.928-247.523 0-448.099-200.576-448.099-448s200.576-448 448-448c247.424 0 448 200.576 448 448h64c0.002-0.525 0.003-1.146 0.003-1.768 0-283.759-230.033-513.792-513.792-513.792s-513.792 230.033-513.792 513.792c0 283.759 230.033 513.792 513.792 513.792 129.48 0 247.774-47.896 338.131-126.937l50.602 51.712c6.479 6.694 15.545 10.85 25.582 10.85 4.925 0 9.617-1.001 13.883-2.81 12.773-5.133 21.79-17.638 21.79-32.249 0-0.242-0.002-0.483-0.007-0.723l-1.023-182.62c0.001-0.1 0.002-0.219 0.002-0.338 0-9.939-4.119-18.916-10.744-25.317z" />
<glyph unicode="&#xe91e;" glyph-name="upload" horiz-adv-x="1265" d="M903.529 56.471c-61.982 0-60.898 60.235 0 60.235 139.144 0 301.176 63.97 301.176 240.941 0.361 207.029-240.941 240.941-240.941 240.941-31.050 4.993-55.242 29.185-60.18 59.821-0.055 102.814-136.187 242.922-271.114 242.922s-271.059-140.107-271.059-242.507c-4.993-31.050-29.185-55.242-59.821-60.18-7.854 0.847-16.468 1.362-25.202 1.362-120.161 0-217.57-97.409-217.57-217.57 0-8.734 0.515-17.348 1.515-25.813-0.099-247.927 301.078-239.916 301.078-239.916 60.777 0 59.452-60.235 0-60.235 0 0-361.412-16.023-361.412 301.176-0.393 5.59-0.617 12.113-0.617 18.688 0 156.355 126.751 283.106 283.106 283.106 6.575 0 13.098-0.224 19.562-0.665-0.874 133.589 173.447 301.224 330.42 301.224 151.974 0 331.294-167.936 331.294-301.176 3.805 0.179 8.266 0.282 12.75 0.282 159.449 0 288.708-129.259 288.708-288.708 0-4.484-0.102-8.945-0.305-13.379 0.023-315.667-361.389-300.547-361.389-300.547zM611.087 531.667c4.702 4.522 11.102 7.308 18.154 7.308 1.139 0 2.26-0.073 3.36-0.213 7.58 0.857 4.267 9.952 21.494-7.275-5.12 5.12 182.332-187.994 182.332-187.994 4.81-4.81 7.784-11.454 7.784-18.793 0-14.679-11.899-26.578-26.578-26.578-7.339 0-13.984 2.975-18.793 7.784l-136.252 136.072v-475.859c0-16.634-13.484-30.118-30.118-30.118s-30.118 13.484-30.118 30.118v475.859l-136.252-136.252c-4.81-4.81-11.454-7.784-18.793-7.784-14.679 0-26.578 11.899-26.578 26.578 0 7.339 2.975 13.984 7.784 18.793s171.731 176.971 182.573 188.356zM611.087 531.667c0.904 0.663 0.783 0.663 0 0z" />
<glyph unicode="&#xe91f;" glyph-name="notifications" d="M967.111 163.556c-0.792-62.517-51.261-112.986-113.703-113.777l-0.075-0.001h-180.907c-23.908-66.831-86.684-113.789-160.427-113.789s-136.518 46.958-160.055 112.603l-0.371 1.186h-180.907c-62.838 0-113.778 50.94-113.778 113.778v0c0 91.022 113.778 172.43 113.778 227.556v170.667c0.227 149.8 97.32 276.863 231.984 321.921l2.399 0.696c16.041 44.439 57.854 75.631 106.951 75.631s90.91-31.192 106.701-74.841l0.25-0.79c137.063-45.754 234.156-172.817 234.382-322.589v-170.694c0-55.068 113.778-136.875 113.778-227.556z" />
<glyph unicode="&#xe920;" glyph-name="chat" d="M512-64v0c282.77 0 512 229.23 512 512s-229.23 512-512 512c-282.77 0-512-229.23-512-512 0-166.684 56.889-188.53 56.889-227.556 0-225.394-56.889-198.144-56.889-227.556l0.007 0.148c-0.064-1.076-0.097-2.161-0.097-3.253 0-29.754 24.12-53.874 53.874-53.874 1.092 0 2.177 0.033 3.105 0.090h56.889l1.278 0.103c58.061 5.775 111.364 27.717 154.597 60.711l1.138-0.341-2.666 1.331c72.286-39.409 155.183-61.804 243.311-61.804 0.198 0 0.397 0 0.564 0zM284.444 618.667h455.111c31.419 0 56.889-25.47 56.889-56.889s-25.47-56.889-56.889-56.889v0h-455.111c-31.419 0-56.889 25.47-56.889 56.889s25.47 56.889 56.889 56.889v0zM284.444 391.111h455.111c31.419 0 56.889-25.47 56.889-56.889s-25.47-56.889-56.889-56.889v0h-455.111c-31.419 0-56.889 25.47-56.889 56.889s25.47 56.889 56.889 56.889v0z" />
<glyph unicode="&#xe921;" glyph-name="popup" d="M877.713 155.43v511.999c0 80.791-65.494 146.286-146.286 146.286v0h-511.999c0 80.791 65.494 146.286 146.286 146.286v0h511.999c80.791 0 146.286-65.494 146.286-146.286v0-511.999c0-80.791-65.494-146.286-146.286-146.286v0zM804.57 594.286v-511.999c0-80.791-65.494-146.286-146.286-146.286v0h-511.999c-80.791 0-146.286 65.494-146.286 146.286v0 511.999c0 80.791 65.494 146.286 146.286 146.286v0h511.999c80.791 0 146.286-65.494 146.286-146.286v0z" />
<glyph unicode="&#xe922;" glyph-name="number" horiz-adv-x="1314" d="M1094.719 518.536c-120.489 0.249-218.068 97.982-218.068 218.505 0 120.677 97.828 218.506 218.506 218.506s218.506-97.828 218.506-218.505v0c-0.249-120.731-98.178-218.506-218.943-218.506 0 0 0 0 0 0v0zM1094.719 809.805c-40.306 0-72.981-32.675-72.981-72.981s32.675-72.981 72.981-72.981c40.306 0 72.981 32.675 72.981 72.981v0c0 40.306-32.675 72.981-72.981 72.981v0zM587.499-8.972l-441.537 659.386v-641.432c0-40.306-32.675-72.981-72.981-72.981s-72.981 32.675-72.981 72.981v0 872.126c-0.467 3.007-0.734 6.475-0.734 10.005 0 18.633 7.436 35.529 19.503 47.882l-0.013-0.013c12.545 12.47 29.835 20.177 48.926 20.177 10.301 0 20.077-2.244 28.867-6.27l-0.433 0.178c23.37-8.168 40.926-27.486 46.468-51.408l0.094-0.482 441.172-658.656v642.235c0 40.306 32.675 72.981 72.981 72.981s72.981-32.675 72.981-72.981v0-875.775c0-0.949-0.511-1.752-0.511-2.627 0.027-0.717 0.043-1.56 0.043-2.406 0-37.606-30.486-68.092-68.092-68.092-1.556 0-3.099 0.052-4.629 0.155l0.207-0.011c-31.519 5.381-57.168 26.293-69.107 54.43l-0.225 0.598z" />
<glyph unicode="&#xe923;" glyph-name="percent" horiz-adv-x="1317" d="M1258.569 10.752c-39.149-45.822-96.99-74.685-161.573-74.685s-122.424 28.863-161.329 74.393l-0.244 0.292c-36.832 55.021-58.781 122.712-58.781 195.529 0 8.641 0.309 17.21 0.917 25.697l-0.065-1.139c-0.516 7.059-0.811 15.294-0.811 23.597 0 72.072 22.179 138.963 60.083 194.222l-0.758-1.17c39.13 45.402 96.71 73.971 160.962 73.971 64.557 0 122.378-28.84 161.282-74.338l0.243-0.291c36.451-62.637 57.967-137.857 57.967-218.103 0-80.194-21.488-155.368-59.021-220.081l1.127 2.106zM1152.951 340.48c-9.999 20.784-30.892 34.874-55.077 34.874s-45.078-14.090-54.918-34.51l-0.158-0.365c-11.737-28.241-18.553-61.044-18.553-95.44 0-5.537 0.177-11.032 0.525-16.481l-0.038 0.744c-0.346-5.002-0.544-10.841-0.544-16.725 0-34.639 6.837-67.68 19.234-97.85l-0.624 1.716c10.23-20.483 31.039-34.303 55.077-34.303s44.847 13.82 54.916 33.948l0.161 0.355c11.773 28.454 18.61 61.496 18.61 96.134 0 5.885-0.197 11.723-0.586 17.509l0.042-0.784c0.31 4.705 0.487 10.201 0.487 15.738 0 34.395-6.816 67.198-19.172 97.132l0.619-1.693zM219.429 374.857c-2.658-0.131-5.772-0.206-8.904-0.206-61.926 0-117.038 29.173-152.344 74.525l-0.324 0.433c-36.832 55.021-58.781 122.712-58.781 195.529 0 8.641 0.309 17.21 0.917 25.697l-0.065-1.139c-0.516 7.059-0.811 15.294-0.811 23.597 0 72.072 22.179 138.963 60.083 194.222l-0.758-1.17c39.13 45.402 96.71 73.971 160.962 73.971 64.557 0 122.378-28.84 161.282-74.338l0.243-0.291c36.428-62.621 57.93-137.819 57.93-218.039s-21.502-155.417-59.057-220.143l1.127 2.105c-35.644-45.783-90.766-74.953-152.7-74.953-3.095 0-6.172 0.073-9.232 0.217l0.433-0.016zM275.383 779.337c-9.999 20.784-30.892 34.874-55.077 34.874s-45.078-14.090-54.918-34.51l-0.158-0.365c-11.737-28.241-18.553-61.044-18.553-95.44 0-5.537 0.177-11.032 0.525-16.481l-0.038 0.744c-0.346-5.002-0.544-10.841-0.544-16.725 0-34.639 6.837-67.68 19.234-97.85l-0.624 1.716c10.23-20.483 31.039-34.303 55.077-34.303s44.847 13.82 54.916 33.948l0.161 0.355c11.773 28.454 18.61 61.496 18.61 96.134 0 5.885-0.197 11.723-0.586 17.509l0.042-0.784c0.298 4.611 0.467 9.997 0.467 15.424 0 34.514-6.864 67.425-19.3 97.443l0.62-1.69zM987.575 951.15c21.901-12.079 36.49-35.021 36.49-61.37 0-13.111-3.612-25.379-9.896-35.862l0.176 0.317-585.143-883.346c-13.303-21.453-36.723-35.527-63.429-35.527-13.407 0-25.986 3.547-36.849 9.754l0.365-0.192c-21.911 12.038-36.514 34.962-36.514 61.296 0 13.115 3.622 25.383 9.92 35.86l-0.176-0.315 585.143 883.419c13.349 21.393 36.758 35.416 63.443 35.416 13.34 0 25.862-3.505 36.694-9.643l-0.37 0.193z" />
<glyph unicode="&#xe924;" glyph-name="bars" horiz-adv-x="1317" d="M1243.429 374.857h-1170.286c-40.396 0-73.143 32.747-73.143 73.143v0 0c0 40.396 32.747 73.143 73.143 73.143v0h1170.286c40.396 0 73.143-32.747 73.143-73.143v0 0c0-40.396-32.747-73.143-73.143-73.143v0zM1243.429 813.714h-1170.286c-40.396 0-73.143 32.747-73.143 73.143s32.747 73.143 73.143 73.143v0h1170.286c40.396 0 73.143-32.747 73.143-73.143s-32.747-73.143-73.143-73.143v0zM73.143 82.286h1170.286c40.396 0 73.143-32.747 73.143-73.143s-32.747-73.143-73.143-73.143v0h-1170.286c-40.396 0-73.143 32.747-73.143 73.143s32.747 73.143 73.143 73.143v0z" />
<glyph unicode="&#xe925;" glyph-name="chart-heatmap" horiz-adv-x="1317" d="M0 960h219.429v-146.286h-219.429v146.286zM365.714 960h219.429v-146.286h-219.429v146.286zM731.429 960h219.429v-146.286h-219.429v146.286zM1097.143 960h219.429v-146.286h-219.429v146.286zM0 667.429h219.429v-146.286h-219.429v146.286zM365.714 667.429h219.429v-146.286h-219.429v146.286zM731.429 667.429h219.429v-146.286h-219.429v146.286zM1097.143 667.429h219.429v-146.286h-219.429v146.286zM0 374.857h219.429v-146.286h-219.429v146.286zM365.714 374.857h219.429v-146.286h-219.429v146.286zM731.429 374.857h219.429v-146.286h-219.429v146.286zM1097.143 374.857h219.429v-146.286h-219.429v146.286zM0 82.286h219.429v-146.286h-219.429v146.286zM365.714 82.286h219.429v-146.286h-219.429v146.286zM731.429 82.286h219.429v-146.286h-219.429v146.286zM1097.143 82.286h219.429v-146.286h-219.429v146.286z" />
<glyph unicode="&#xe926;" glyph-name="alert" horiz-adv-x="939" d="M924.715 714.027l-39.979-40.021c-8.016-8.011-19.088-12.966-31.317-12.966-24.469 0-44.304 19.836-44.304 44.304 0 12.24 4.963 23.32 12.987 31.338v0l40.021 40.064c8.014 7.998 19.078 12.945 31.296 12.945 24.469 0 44.305-19.836 44.305-44.305 0-12.25-4.972-23.339-13.008-31.359l-0.001-0.001zM809.344-64h-724.011v21.333c0 35.346 28.654 64 64 64v0h596.181c35.346 0 64-28.654 64-64v0-21.333zM612.395 821.035c-8.216-19.398-27.093-32.759-49.091-32.759-4.97 0-9.781 0.682-14.344 1.958l0.374-0.089c-21.286 2.896-37.516 20.955-37.516 42.806 0 3.724 0.471 7.337 1.358 10.784l-0.065-0.299 26.667 84.011c8.21 19.38 27.071 32.729 49.050 32.729 4.985 0 9.81-0.687 14.385-1.971l-0.374 0.090c21.288-2.871 37.527-20.924 37.527-42.77 0-3.737-0.475-7.363-1.368-10.82l0.066 0.299zM346.624 790.144c-4.185-1.185-8.991-1.866-13.957-1.866-21.99 0-40.859 13.362-48.931 32.409l-0.131 0.348-26.709 83.968c-0.814 3.135-1.281 6.735-1.281 10.443 0 21.87 16.243 39.946 37.323 42.822l0.224 0.025c4.204 1.198 9.033 1.887 14.023 1.887 21.966 0 40.813-13.354 48.865-32.387l0.131-0.348 26.709-84.011c0.807-3.123 1.27-6.708 1.27-10.402 0-21.866-16.238-39.94-37.313-42.821l-0.224-0.025zM52.565 673.963l-40.021 40.021c-7.62 7.948-12.312 18.756-12.312 30.659 0 24.483 19.848 44.331 44.331 44.331 11.882 0 22.673-4.675 30.632-12.286l-0.017 0.016 39.979-40.064c8.985-8.137 14.606-19.847 14.606-32.869 0-24.46-19.828-44.288-44.288-44.288-13.044 0-24.771 5.639-32.875 14.612l-0.034 0.039zM468.565 575.829c-23.564 0-42.667-19.103-42.667-42.667s19.103-42.667 42.667-42.667v0c47.128 0 85.333-38.205 85.333-85.333v0c0-23.564 19.103-42.667 42.667-42.667s42.667 19.103 42.667 42.667v0c0 0.051 0 0.111 0 0.171 0 94.257-76.41 170.667-170.667 170.667v0zM448 703.829c176.731 0 320-143.269 320-320v0-277.163h-640v277.333c0 176.731 143.269 320 320 320v0z" />
<glyph unicode="&#xe927;" glyph-name="chart-donut" d="M731.429 448v0c-0.175 94.677-60.484 175.222-144.76 205.492l-1.526 0.478v298.715c249.172-36.329 438.445-248.342 438.857-504.642v-0.044h-292.571zM292.571 448c0-0.123 0-0.269 0-0.415 0-120.904 98.012-218.917 218.917-218.917 94.838 0 175.591 60.306 206.002 144.663l0.48 1.526h298.715c-37.477-248.498-249.53-436.808-505.565-436.808-282.204 0-510.976 228.772-510.976 510.976s228.772 510.976 510.976 510.976c0.309 0 0.618 0 0.927-0.001h-0.048v-292.571c-121.187 0-219.429-98.242-219.429-219.429v0z" />
<glyph unicode="&#xe928;" glyph-name="chart-pareto" horiz-adv-x="1317" d="M1243.429-64h-146.286c-40.396 0-73.143 32.747-73.143 73.143v0 146.286c0 40.396 32.747 73.143 73.143 73.143v0h146.286c40.396 0 73.143-32.747 73.143-73.143v0-146.286c0-40.396-32.747-73.143-73.143-73.143v0zM1280 813.714h-438.857c-203.849 0-454.217-111.47-548.571-276.553v127.195c113.81 135.826 357.376 222.501 548.571 222.501h438.857c20.198 0 36.571-16.374 36.571-36.571s-16.374-36.571-36.571-36.571v0zM146.286 301.714v-109.714c0-0.004 0-0.009 0-0.015 0-5.142 1.049-10.040 2.944-14.49l-0.092 0.242c3.73-8.704-0.878-7.899 7.826-11.557 7.392-4.142 15.975-7.798 24.966-10.512l0.926-0.24c0.009 0 0.019 0 0.030 0 5.112 0 9.98 1.049 14.398 2.943l-0.238-0.091c8.777 3.73 7.973-0.878 11.63 7.899 4.159 7.378 7.815 15.937 10.517 24.91l0.235 0.91v109.714h1.829c6.475 86.232 32.139 165.258 72.701 234.498l-1.387-2.562v-524.507c0-40.396-32.747-73.143-73.143-73.143v0h-146.286c-40.396 0-73.143 32.747-73.143 73.143v0 877.714c0 40.396 32.747 73.143 73.143 73.143v0h146.286c40.396 0 73.143-32.747 73.143-73.143v0-222.501c-78.118-100.369-130.697-224.205-145.982-359.342l-0.303-3.301zM585.143 594.286h146.286c40.396 0 73.143-32.747 73.143-73.143v0-512c0-40.396-32.747-73.143-73.143-73.143v0h-146.286c-40.396 0-73.143 32.747-73.143 73.143v0 512c0 40.396 32.747 73.143 73.143 73.143v0z" />
<glyph unicode="&#xe929;" glyph-name="emoji-neutral" d="M511.979-64.426c-282.703 0.073-511.851 229.266-511.851 511.979 0 282.758 229.221 511.979 511.979 511.979 282.728 0 511.93-229.172 511.979-511.889v-0.004c-0.048-282.8-229.302-512.039-512.104-512.064h-0.003zM937.115 447.595c-0.388 234.809-190.827 425.008-425.69 425.008-235.102 0-425.69-190.588-425.69-425.69 0-235.072 190.539-425.641 425.6-425.69h0.004c235.191 0.194 425.775 190.898 425.775 426.116 0 0.090 0 0.18 0 0.27v-0.014zM661.077 490.207c-35.301 0-63.917 28.617-63.917 63.917s28.617 63.917 63.917 63.917c35.301 0 63.917-28.617 63.917-63.917v0c0-0.076 0.001-0.166 0.001-0.256 0-35.301-28.617-63.917-63.917-63.917 0 0 0 0 0 0v0zM724.398 276.893c0.021-0.493 0.033-1.071 0.033-1.653 0-22.639-18.353-40.992-40.992-40.992-0.581 0-1.16 0.012-1.735 0.036l0.082-0.003h-340.893c-0.603-0.031-1.308-0.049-2.018-0.049-22.757 0-41.205 18.448-41.205 41.205 0 0.392 0.005 0.783 0.016 1.172l-0.001-0.057c-0.011 0.363-0.018 0.79-0.018 1.219 0 23.063 18.696 41.759 41.759 41.759 0.516 0 1.029-0.009 1.541-0.028l-0.074 0.002h340.893c0.493 0.021 1.071 0.033 1.653 0.033 22.639 0 40.992-18.353 40.992-40.992 0-0.581-0.012-1.16-0.036-1.735l0.003 0.082zM361.773 489.951c-35.301 0-63.917 28.617-63.917 63.917s28.617 63.917 63.917 63.917c35.301 0 63.917-28.617 63.917-63.917v0c0-35.301-28.617-63.917-63.917-63.917v0z" />
<glyph unicode="&#xe92a;" glyph-name="emoji-good" d="M512-64.597c-0.127 0-0.277 0-0.427 0-283.005 0-512.427 229.421-512.427 512.427s229.421 512.427 512.427 512.427c283.005 0 512.427-229.421 512.427-512.427 0-0.045 0-0.090 0-0.135v0.007c-0.242-282.732-229.291-511.886-511.96-512.299h-0.040zM510.592 873.173c-0.139 0-0.304 0-0.469 0-235.641 0-426.667-191.025-426.667-426.667s191.025-426.667 426.667-426.667c235.641 0 426.667 191.025 426.667 426.667v0c0 0 0 0 0 0 0 235.416-190.66 426.302-425.991 426.666h-0.035zM660.864 489.899c-35.346 0-64 28.654-64 64s28.654 64 64 64c35.346 0 64-28.654 64-64v0c0 0 0 0 0 0 0-35.286-28.557-63.903-63.82-64h-0.009zM697.941 357.632c16.441-7.803 27.606-24.27 27.606-43.343 0-12.551-4.835-23.974-12.743-32.506l0.028 0.031c-49.493-55.898-121.431-90.957-201.557-90.957s-152.065 35.059-201.312 90.674l-0.246 0.283c-12.8 17.835-25.6 63.104 14.891 75.947 26.308-0.264 49.657-12.704 64.716-31.946l0.138-0.182c29.607-31.572 71.582-51.241 118.151-51.241 1.288 0 2.572 0.015 3.853 0.045l-0.19-0.004c45.694 2.534 86.503 21.59 116.946 51.239l-0.040-0.039c29.739 25.941 44.501 40.491 69.931 31.829zM361.6 489.899c-35.346 0-64 28.654-64 64s28.654 64 64 64c35.346 0 64-28.654 64-64v0c0 0 0 0 0 0 0-35.286-28.557-63.903-63.82-64h-0.009z" />
<glyph unicode="&#xe92b;" glyph-name="emoji-bad" horiz-adv-x="1023" d="M511.553-63.616c-282.64 0-511.766 229.125-511.766 511.766s229.125 511.766 511.766 511.766c282.611 0 511.717-229.077 511.766-511.676v-0.004c-0.267-282.55-229.222-511.536-511.736-511.851h-0.030zM511.553 874.351c-235.338 0-426.116-190.779-426.116-426.116s190.779-426.116 426.116-426.116c235.338 0 426.116 190.779 426.116 426.116v0c-0.387 235.151-190.886 425.68-425.989 426.116h-0.042zM660.31 491.826c-35.062 0.314-63.363 28.809-63.363 63.915 0 35.301 28.617 63.917 63.917 63.917s63.916-28.615 63.917-63.915v0c-0.145-35.332-28.821-63.918-64.173-63.918-0.045 0-0.090 0-0.135 0h0.007zM712.893 272.632c7.895-8.49 12.74-19.91 12.74-32.461 0-19.041-11.151-35.478-27.28-43.136l-0.289-0.124c-25.567-8.522-40.225 5.88-69.798 32.214-30.42 29.557-71.212 48.583-116.409 51.113l-0.474 0.021c-1.101 0.027-2.398 0.042-3.698 0.042-46.549 0-88.511-19.642-118.049-51.090l-0.080-0.086c-15.229-19.398-38.586-31.817-64.853-32.086h-0.044c-40.396 12.783-27.57 58.037-14.829 75.849 49.532 55.748 121.415 90.699 201.461 90.699 80.167 0 152.145-35.056 201.443-90.674l0.244-0.281zM361.687 491.826c-35.301 0-63.917 28.617-63.917 63.917s28.617 63.917 63.917 63.917c35.301 0 63.917-28.617 63.917-63.917v0c0 0 0 0 0 0 0-35.271-28.568-63.869-63.828-63.917h-0.005z" />
<glyph unicode="&#xe92c;" glyph-name="medal" d="M426.667 618.667l213.333 341.333h170.667l-213.333-341.333h-170.667zM213.333 960h170.667l77.781-124.501-80.299-144.555zM512 533.333c164.949 0 298.667-133.718 298.667-298.667s-133.718-298.667-298.667-298.667c-164.949 0-298.667 133.718-298.667 298.667v0c0 164.949 133.718 298.667 298.667 298.667v0z" />
<glyph unicode="&#xe92d;" glyph-name="na" horiz-adv-x="2048" d="M631.68 895.36c-0.779 0.033-1.693 0.052-2.611 0.052-19.294 0-36.624-8.403-48.533-21.748l-0.056-0.064c-12.023-14.48-19.32-33.261-19.32-53.745 0-1.581 0.043-3.152 0.129-4.712l-0.010 0.217v-539.52l-430.272 590.72c-11.905 17.504-31.729 28.85-54.204 28.85-0.902 0-1.799-0.018-2.692-0.054l0.128 0.004c-0.951 0.047-2.066 0.075-3.187 0.075-19.735 0-37.511-8.387-49.958-21.792l-0.039-0.043c-12.549-14.412-20.198-33.376-20.198-54.127 0-1.447 0.037-2.884 0.111-4.313l-0.008 0.2v-733.44c-0.046-1.070-0.072-2.324-0.072-3.585 0-20.979 7.262-40.263 19.41-55.473l-0.138 0.178c13.083-13.812 31.554-22.407 52.032-22.407s38.949 8.595 52.001 22.374l0.031 0.033c11.825 14.964 18.969 34.103 18.969 54.91 0 1.396-0.032 2.785-0.096 4.166l0.007-0.196v541.44l431.552-593.92c12.094-17.534 32.071-28.878 54.698-28.878 1.133 0 2.26 0.028 3.379 0.085l-0.157-0.006c0.53-0.015 1.154-0.023 1.78-0.023 19.927 0 37.839 8.633 50.198 22.362l0.054 0.061c12.546 14.808 20.174 34.13 20.174 55.232 0 1.283-0.028 2.559-0.084 3.828l0.006-0.181v733.44c0.064 1.234 0.101 2.679 0.101 4.132 0 20.65-7.415 39.569-19.728 54.238l0.106-0.13c-12.213 13.44-29.762 21.844-49.274 21.844-1.173 0-2.339-0.030-3.497-0.090l0.162 0.007zM946.112-18.56l265.856 897.28c2.192 6.612 3.456 14.224 3.456 22.131 0 0.095 0 0.189-0.001 0.284v-0.015c0.019 0.538 0.030 1.171 0.030 1.806 0 15.979-6.825 30.364-17.719 40.399l-0.038 0.035c-10.517 10.222-24.863 16.552-40.687 16.64h-0.017c-12.495-0.018-24.034-4.098-33.37-10.989l0.154 0.109c-10.525-8.756-18.222-20.585-21.724-34.103l-0.1-0.457-265.856-897.28c-2.192-6.612-3.456-14.224-3.456-22.131 0-0.095 0-0.189 0.001-0.284v0.015c-0.019-0.538-0.030-1.17-0.030-1.804 0-15.992 6.852-30.384 17.781-40.399l0.041-0.037c10.51-10.233 24.86-16.566 40.69-16.64h0.014c12.494 0.028 24.030 4.105 33.372 10.989l-0.156-0.109c10.484 8.776 18.153 20.6 21.659 34.101l0.101 0.459zM2039.744 100.48l-354.752 744.96c-7.516 16.403-19.675 29.592-34.789 38.185l-0.411 0.215c-14.624 8.060-32.054 12.802-50.592 12.802s-35.968-4.742-51.144-13.080l0.552 0.278c-15.551-8.798-27.732-21.99-35.051-37.883l-0.213-0.517-353.408-744.96c-4.747-9.53-7.57-20.742-7.68-32.604v-0.036c0-0.009 0-0.021 0-0.032 0-19.813 9.487-37.411 24.167-48.497l0.153-0.111c14.288-12.576 33.105-20.307 53.724-20.48h0.036c0.069 0 0.15 0 0.232 0 14.584 0 28.224 4.045 39.858 11.074l-0.346-0.194c12.467 8.020 22.172 19.373 27.977 32.805l0.183 0.475 76.8 168.32h450.816l76.8-168.32c5.99-13.922 15.721-25.28 27.932-33.105l0.292-0.175c10.94-6.769 24.191-10.808 38.38-10.88h0.020c0.071 0 0.155 0 0.239 0 20.809 0 39.805 7.765 54.247 20.555l-0.086-0.075c14.507 11.347 23.744 28.853 23.744 48.517 0 0.043 0 0.087 0 0.13v-0.007c-0.11 11.898-2.933 23.11-7.879 33.084l0.199-0.444zM1599.36 704l192-383.36h-384z" />
<glyph unicode="&#xe92e;" glyph-name="plus" d="M921.6 345.6h-307.2v-307.2c0-56.554-45.846-102.4-102.4-102.4s-102.4 45.846-102.4 102.4v0 307.2h-307.2c-56.554 0-102.4 45.846-102.4 102.4s45.846 102.4 102.4 102.4v0h307.2v307.2c0 56.554 45.846 102.4 102.4 102.4s102.4-45.846 102.4-102.4v0-307.2h307.2c56.554 0 102.4-45.846 102.4-102.4s-45.846-102.4-102.4-102.4v0z" />
<glyph unicode="&#xe92f;" glyph-name="chevron-left" horiz-adv-x="576" d="M558.016 855.36l-409.28-407.36 409.216-407.424c11.117-10.992 18.001-26.244 18.001-43.104s-6.884-32.112-17.995-43.098l-0.006-0.006c-11.161-11.033-26.513-17.849-43.456-17.849s-32.295 6.816-43.462 17.855l0.006-0.006-452.544 450.56c-11.117 10.992-18.001 26.244-18.001 43.104s6.884 32.112 17.995 43.098l0.006 0.006 452.544 450.56c11.168 11.018 26.517 17.823 43.456 17.823s32.288-6.805 43.463-17.83l-0.007 0.007c11.158-11.008 18.071-26.297 18.071-43.2 0-16.871-6.886-32.134-18.001-43.131l-0.005-0.005z" />
<glyph unicode="&#xe930;" glyph-name="flag" horiz-adv-x="819" d="M716.8 294.4h-614.4v-307.2c0-28.277-22.923-51.2-51.2-51.2s-51.2 22.923-51.2 51.2v0 972.8h716.8c56.554 0 102.4-45.846 102.4-102.4v0-460.8c0-56.554-45.846-102.4-102.4-102.4v0zM716.8 704h-153.6v153.6h-153.6v-153.6h-153.6v153.6h-153.6v-153.6h153.6v-153.6h-153.6v-153.6h153.6v153.6h153.6v-153.6h153.6v153.6h153.6v153.6zM409.6 550.4v153.6h153.6v-153.6h-153.6z" />
<glyph unicode="&#xe931;" glyph-name="area" horiz-adv-x="1026" d="M585.318 267.93c-20.446-15.378-46.263-24.628-74.24-24.628s-53.794 9.25-74.559 24.857l0.319-0.23-407.808 275.046c-18.671 13.325-30.699 34.916-30.699 59.315s12.028 45.99 30.478 59.165l0.221 0.15 407.808 275.046c20.443 15.386 46.261 24.641 74.24 24.641s53.796-9.255 74.558-24.87l-0.318 0.229 407.962-275.046c18.671-13.325 30.699-34.916 30.699-59.315s-12.028-45.99-30.478-59.165l-0.221-0.15zM51.2 396.8s265.062-176.947 393.626-261.12c17.85-16.349 41.734-26.367 67.958-26.367 24.212 0 46.429 8.54 63.804 22.771l-0.178-0.142c128 83.354 399.36 264.755 399.36 264.755s93.901-87.808 20.48-161.075l-409.088-275.046c-20.501-15.346-46.357-24.572-74.368-24.572s-53.867 9.226-74.694 24.805l0.326-0.234-409.088 275.046c-77.005 76.851 21.862 161.178 21.862 161.178z" />
<glyph unicode="&#xe932;" glyph-name="help" d="M512 960c-282.77 0-512-229.23-512-512s229.23-512 512-512c282.77 0 512 229.23 512 512v0c-0.407 282.605-229.394 511.592-511.96 512h-0.040zM460.8 396.8c4.521 40.67 23.283 76.276 51.108 102.315l0.092 0.085c26.387 27.124 44.718 62.208 51.055 101.313l0.145 1.087c0.115 1.235 0.18 2.671 0.18 4.123 0 26.1-21.158 47.258-47.258 47.258-1.451 0-2.887-0.065-4.305-0.193l0.183 0.013c-0.107 0.001-0.233 0.001-0.36 0.001-28.079 0-50.842-22.763-50.842-50.842 0-0.126 0-0.253 0.001-0.379v0.019c0-28.277-22.923-51.2-51.2-51.2s-51.2 22.923-51.2 51.2v0c-0.051 1.446-0.079 3.146-0.079 4.853 0 82.003 66.477 148.48 148.48 148.48 1.828 0 3.649-0.033 5.461-0.099l-0.262 0.008c3.443 0.296 7.45 0.464 11.497 0.464 78.723 0 142.541-63.818 142.541-142.541 0-3.93-0.159-7.822-0.471-11.672l0.033 0.506c0.017-0.766 0.027-1.669 0.027-2.573 0-40.968-20.048-77.253-50.869-99.58l-0.358-0.247c-28.158-25.957-46.995-61.653-51.142-101.71l-0.058-0.69c-4.244-26.392-24.808-46.956-50.848-51.153l-0.352-0.047c-26.493 4.039-47.161 24.707-51.158 50.862l-0.042 0.338zM512 243.2c28.277 0 51.2-22.923 51.2-51.2s-22.923-51.2-51.2-51.2c-28.277 0-51.2 22.923-51.2 51.2v0c0 28.277 22.923 51.2 51.2 51.2v0z" />
<glyph unicode="&#xe933;" glyph-name="photo" horiz-adv-x="1229" d="M1075.2-64l0.355 0.013c82.882 3.835 149.397 70.349 153.245 153.587v614.4l-0.078-0.707c0.823 6.072 1.249 12.271 1.249 18.568 0 75.613-61.296 136.909-136.909 136.909-6.298 0-12.497-0.425-17.861-1.17h-204.8l-0.009-0.231c0.082 1.641 0.123 3.292 0.123 4.953 0 54.009-43.783 97.792-97.792 97.792-1.661 0-3.312-0.041-4.722-0.114l-307.026-0.005c-1.199 0.043-2.403 0.065-3.613 0.065-54.688 0-99.021-44.333-99.021-99.021 0-1.209 0.022-2.414 0.060-3.439l-204.093-0.078c-6.072 0.823-12.271 1.249-18.568 1.249-75.613 0-136.909-61.296-136.909-136.909 0-6.298 0.425-12.497 1.17-17.861v-614.4l0.013-0.355c3.835-82.882 70.349-149.397 153.587-153.245h921.6zM1074.688 652.8c-28.277 0-51.2 22.923-51.2 51.2s22.923 51.2 51.2 51.2c28.277 0 51.2-22.923 51.2-51.2v0c0.001-0.092 0.001-0.2 0.001-0.308 0-28.107-22.785-50.893-50.893-50.893-0.108 0-0.217 0-0.325 0.001h0.017zM614.4 90.47c-169.31 0.204-306.483 137.503-306.483 306.841 0 169.464 137.378 306.842 306.842 306.842s306.841-137.377 306.842-306.841v0c0-0.015 0-0.033 0-0.051 0-169.436-137.355-306.79-306.79-306.79-0.144 0-0.288 0-0.432 0h0.022zM614.4 601.139c-0.152 0-0.332 0.001-0.512 0.001-113.108 0-204.8-91.692-204.8-204.8s91.692-204.8 204.8-204.8c113.108 0 204.8 91.692 204.8 204.8v0c0 0 0 0 0 0.001 0 112.928-91.4 204.508-204.26 204.799h-0.028z" />
<glyph unicode="&#xe934;" glyph-name="check" horiz-adv-x="1325" d="M516.216-50.808c-8.116-8.042-19.29-13.012-31.624-13.012-0.106 0-0.211 0-0.317 0.001h0.016c-0.081-0.001-0.177-0.001-0.274-0.001-12.153 0-23.143 4.978-31.043 13.006l-0.006 0.006-441.525 438.513c-8.097 8.035-13.11 19.169-13.11 31.473s5.013 23.438 13.107 31.47l0.003 0.003 147.576 146.854c8.116 8.042 19.29 13.011 31.624 13.011s23.507-4.969 31.627-13.015l-0.003 0.003 262.024-260.216 616.207 611.81c8.238 8.022 19.503 12.969 31.925 12.969s23.687-4.947 31.935-12.978l-0.010 0.010 147.576-146.914c8.187-7.993 13.264-19.14 13.264-31.473s-5.077-23.48-13.255-31.464l-0.009-0.008z" />
<glyph unicode="&#xe935;" glyph-name="slim-arrow-up" horiz-adv-x="768" d="M318.784 0.192l-2.24 727.936-203.264-204.48c-12.035-12.357-28.834-20.022-47.424-20.022s-35.389 7.665-47.41 20.007l-0.014 0.014c-12.143 12.444-19.633 29.475-19.633 48.256s7.49 35.812 19.647 48.27l-0.014-0.014 317.76 320.96c12.050 12.324 28.845 19.966 47.424 19.966s35.374-7.642 47.412-19.954l0.012-0.012 317.696-320.96c12.143-12.444 19.633-29.475 19.633-48.256s-7.49-35.812-19.647-48.27l0.014 0.014c-12.035-12.357-28.834-20.022-47.424-20.022s-35.389 7.665-47.41 20.007l-0.014 0.014-203.2 204.48-3.392-727.936c0.105-1.299 0.165-2.812 0.165-4.339 0-15.599-6.27-29.733-16.427-40.019l0.006 0.006c-12.050-12.324-28.845-19.966-47.424-19.966s-35.374 7.642-47.412 19.954l-0.012 0.012c-10.791 10.48-17.487 25.127-17.487 41.337 0 1.061 0.029 2.115 0.085 3.161l-0.006-0.146z" />
<glyph unicode="&#xe936;" glyph-name="slim-arrow-down" horiz-adv-x="768" d="M318.784 897.984l-2.304-728-203.2 204.8c-12.050 12.324-28.845 19.966-47.424 19.966s-35.374-7.642-47.412-19.954l-0.012-0.012c-12.143-12.444-19.633-29.475-19.633-48.256s7.49-35.812 19.647-48.27l-0.014 0.014 317.696-320.96c12.050-12.324 28.845-19.966 47.424-19.966s35.374 7.642 47.412 19.954l0.012 0.012 317.76 320.96c12.143 12.444 19.633 29.475 19.633 48.256s-7.49 35.812-19.647 48.27l0.014-0.014c-12.060 12.328-28.866 19.971-47.456 19.971s-35.396-7.644-47.444-19.959l-0.012-0.012-203.2-204.48-3.392 727.68c0.108 1.313 0.17 2.843 0.17 4.387 0 15.584-6.272 29.703-16.43 39.97l0.005-0.005c-12.050 12.324-28.845 19.966-47.424 19.966s-35.374-7.642-47.412-19.954l-0.012-0.012c-10.752-10.534-17.418-25.204-17.418-41.431 0-1.027 0.027-2.049 0.080-3.063l-0.006 0.142z" />
<glyph unicode="&#xe937;" glyph-name="chart-line" horiz-adv-x="1195" d="M1061.888 623.189l-88.576-309.931c31.303-30.952 50.688-73.901 50.688-121.376 0-94.257-76.41-170.667-170.667-170.667s-170.667 76.41-170.667 170.667c0 0.041 0 0.083 0 0.124v-0.006c0.456 25.156 6.453 48.806 16.816 69.924l-0.432-0.975-202.411 202.411c-20.537-9.616-44.584-15.267-69.941-15.36h-0.033l-119.467-239.531c20.88-27.93 33.433-63.144 33.433-101.291 0-93.974-76.181-170.155-170.155-170.155s-170.155 76.181-170.155 170.155c0 93.974 76.181 170.155 170.155 170.155 0.066 0 0.132 0 0.199 0h-0.010l119.467 239.531c-21.44 28.221-34.346 63.945-34.346 102.683 0 94.257 76.41 170.667 170.667 170.667s170.667-76.41 170.667-170.667c0-25.69-5.676-50.054-15.842-71.906l0.439 1.052 203.093-203.093c8.619 4.705 18.682 8.964 29.183 12.224l1.195 0.32 88.576 309.931c-31.346 30.959-50.76 73.936-50.76 121.448 0 94.257 76.41 170.667 170.667 170.667s170.667-76.41 170.667-170.667c0-80.705-56.018-148.326-131.293-166.102l-1.158-0.231z" />
<glyph unicode="&#xe938;" glyph-name="list" horiz-adv-x="1195" d="M1109.333 362.667h-682.667c-47.128 0-85.333 38.205-85.333 85.333s38.205 85.333 85.333 85.333v0h682.667c47.128 0 85.333-38.205 85.333-85.333s-38.205-85.333-85.333-85.333v0zM1109.333 789.333h-682.667c-47.128 0-85.333 38.205-85.333 85.333s38.205 85.333 85.333 85.333v0h682.667c47.128 0 85.333-38.205 85.333-85.333s-38.205-85.333-85.333-85.333v0zM85.333-64c-47.128 0-85.333 38.205-85.333 85.333s38.205 85.333 85.333 85.333c47.128 0 85.333-38.205 85.333-85.333v0c0-47.128-38.205-85.333-85.333-85.333v0zM85.333-64v0zM85.333 106.667v0zM85.333 362.667c-47.128 0-85.333 38.205-85.333 85.333s38.205 85.333 85.333 85.333c47.128 0 85.333-38.205 85.333-85.333v0c0-47.128-38.205-85.333-85.333-85.333v0zM85.333 362.667v0zM85.333 533.333v0zM85.333 789.333c-47.128 0-85.333 38.205-85.333 85.333s38.205 85.333 85.333 85.333c47.128 0 85.333-38.205 85.333-85.333v0c0-47.128-38.205-85.333-85.333-85.333v0zM85.333 789.333v0zM85.333 960v0zM426.667 106.667h682.667c47.128 0 85.333-38.205 85.333-85.333s-38.205-85.333-85.333-85.333v0h-682.667c-47.128 0-85.333 38.205-85.333 85.333s38.205 85.333 85.333 85.333v0z" />
<glyph unicode="&#xe939;" glyph-name="chart-bars" d="M73.143 960h292.571c40.396 0 73.143-32.747 73.143-73.143v0-146.286c0-40.396-32.747-73.143-73.143-73.143v0h-292.571c-40.396 0-73.143 32.747-73.143 73.143v0 146.286c0 40.396 32.747 73.143 73.143 73.143v0zM73.143 594.286h877.714c40.396 0 73.143-32.747 73.143-73.143v0-146.286c0-40.396-32.747-73.143-73.143-73.143v0h-877.714c-40.396 0-73.143 32.747-73.143 73.143v0 146.286c0 40.396 32.747 73.143 73.143 73.143v0zM73.143 228.571h512c40.396 0 73.143-32.747 73.143-73.143v0-146.286c0-40.396-32.747-73.143-73.143-73.143v0h-512c-40.396 0-73.143 32.747-73.143 73.143v0 146.286c0 40.396 32.747 73.143 73.143 73.143v0z" />
<glyph unicode="&#xe93a;" glyph-name="attachment" horiz-adv-x="1152" d="M570.88-46.336c-10.978 10.96-17.77 26.111-17.77 42.848s6.792 31.888 17.769 42.847l387.201 387.201c43.705 43.673 70.739 104.023 70.739 170.688 0 133.266-108.033 241.299-241.299 241.299-66.601 0-126.9-26.982-170.561-70.612l-451.839-451.775c-28.291-27.442-45.849-65.81-45.849-108.28 0-83.276 67.508-150.784 150.784-150.784 42.422 0 80.752 17.519 108.15 45.716l0.035 0.036 64.64 64.512 344.32 344.192c11.768 11.030 19.1 26.671 19.1 44.025 0 33.296-26.992 60.288-60.288 60.288-17.306 0-32.908-7.292-43.903-18.97l-0.029-0.031-344.32-344.192c-10.959-11.007-26.124-17.818-42.88-17.818-33.416 0-60.506 27.089-60.506 60.506 0 16.66 6.734 31.748 17.628 42.69l344.318 344.19c32.998 34.315 79.298 55.632 130.576 55.632 99.994 0 181.056-81.062 181.056-181.056 0-51.278-21.317-97.578-55.573-130.52l-0.059-0.056-344.32-344.128-64-64.576c-49.545-51.56-119.081-83.593-196.099-83.593-150.115 0-271.808 121.693-271.808 271.808 0 76.859 31.901 146.267 83.184 195.706l0.083 0.080 451.84 451.712c65.928 67.917 158.080 110.064 260.076 110.064 200.095 0 362.304-162.209 362.304-362.304 0-101.837-42.016-193.86-109.658-259.681l-0.082-0.080-387.84-387.264c-10.875-11.057-25.997-17.909-42.718-17.909-16.563 0-31.557 6.722-42.401 17.588l-0.001 0.001z" />
<glyph unicode="&#xe93b;" glyph-name="download" d="M972.8-64h-921.6c-28.277 0-51.2 22.923-51.2 51.2v0 204.8c0 28.277 22.923 51.2 51.2 51.2s51.2-22.923 51.2-51.2v0-153.6h819.2v153.6c0 28.277 22.923 51.2 51.2 51.2s51.2-22.923 51.2-51.2v0-204.8c0-28.277-22.923-51.2-51.2-51.2v0zM557.568 220.16c-2.374-5.101-5.304-9.489-8.797-13.359l0.041 0.047c-9.772-8.585-22.668-13.824-36.787-13.824s-27.015 5.239-36.85 13.878l0.063-0.054c-3.452 3.823-6.381 8.211-8.619 12.987l-0.137 0.325-195.533 196.096c-8.954 8.89-14.497 21.206-14.497 34.816 0 27.093 21.963 49.057 49.057 49.057 13.483 0 25.695-5.439 34.563-14.243l-0.003 0.003 120.678-121.344v541.696c-0.163 1.533-0.256 3.313-0.256 5.114 0 28.277 22.923 51.2 51.2 51.2s51.2-22.923 51.2-51.2c0-1.801-0.093-3.58-0.274-5.333l0.018 0.219v-542.208l121.344 121.856c8.869 8.812 21.091 14.259 34.586 14.259 27.103 0 49.075-21.971 49.075-49.075 0-13.609-5.539-25.924-14.486-34.813l-0.003-0.003z" />
<glyph unicode="&#xe93c;" glyph-name="timer" horiz-adv-x="878" d="M863.086 681.765c-9.175-9.166-21.846-14.834-35.84-14.834s-26.665 5.669-35.84 14.835v0l-38.034 38.229-19.992-20.090c88.867-80.617 144.445-196.542 144.445-325.449 0-242.374-196.483-438.857-438.857-438.857s-438.857 196.483-438.857 438.857c0 129.265 55.887 245.476 144.817 325.79l0.384 0.342-20.968 20.919-38.034-38.229c-9.17-9.176-21.842-14.853-35.84-14.853-27.983 0-50.668 22.685-50.668 50.668 0 13.986 5.666 26.648 14.828 35.816v0l143.36 143.311c9.17 9.176 21.842 14.853 35.84 14.853 27.983 0 50.668-22.685 50.668-50.668 0-13.986-5.666-26.648-14.828-35.816v0l-38.522-38.229 32.183-31.89c48.038 27.953 104.519 47.252 164.764 54.182l2.002 0.187v51.639h-48.762c-26.93 0-48.762 21.831-48.762 48.762s21.831 48.762 48.762 48.762v0h195.048c26.93 0 48.762-21.831 48.762-48.762s-21.831-48.762-48.762-48.762v0h-48.762v-51.639c62.632-7.195 119.443-26.701 169.802-56.065l-2.061 1.11 31.208 30.915-38.522 38.229c-9.162 9.168-14.828 21.83-14.828 35.816 0 27.983 22.685 50.668 50.668 50.668 13.998 0 26.67-5.676 35.84-14.852v0l143.36-143.311c9.243-9.121 14.969-21.788 14.969-35.791s-5.726-26.67-14.963-35.786l-0.005-0.005zM438.857 716.19c-188.513 0-341.333-152.82-341.333-341.333s152.82-341.333 341.333-341.333c188.513 0 341.333 152.82 341.333 341.333v0c0 188.513-152.82 341.333-341.333 341.333v0zM536.381 326.095h-97.524c-26.93 0-48.762 21.831-48.762 48.762v0 195.048c0 26.93 21.831 48.762 48.762 48.762s48.762-21.831 48.762-48.762v0-146.286h48.762c26.93 0 48.762-21.831 48.762-48.762s-21.831-48.762-48.762-48.762v0z" />
<glyph unicode="&#xe93d;" glyph-name="correct" horiz-adv-x="1291" d="M948.616 278.643c-94.522-103.583-199.088-195.2-313.002-274.299l-6.073-3.991-40.893-40.355c-14.156-14.294-33.786-23.145-55.483-23.145-9.836 0-19.247 1.819-27.915 5.138l0.535-0.18c-8.078-3.394-17.466-5.366-27.315-5.366-15.109 0-29.135 4.641-40.729 12.574l0.247-0.16-88.243 88.674c-36.589 30.509-79.096 69.088-128.061 118.375-251.817 250.848-239.441 324.079-198.010 364.865l144.741 143.611c45.736 45.682 107.614 54.453 330.913-161.797 32.822 35.62 69.411 73.823 110.304 114.985 315.847 317.461 466.506 373.313 510.628 328.868l156.040-156.471c52.193-52.462-19.371-188.163-327.684-511.327z" />
<glyph unicode="&#xe93e;" glyph-name="wrong" horiz-adv-x="1021" d="M817.932 447.208c65.754-51.55 122.278-110.704 169.501-176.947l1.753-2.589c19.575-18.301 31.774-44.28 31.774-73.108 0-26.016-9.935-49.711-26.219-67.499l0.068 0.075-168.187-168.699c-36.807-37.267-183.524-23.516-139.56 5.623-64.898 53.481-122.52 111.282-174.107 174.219l-1.748 2.199c-53.169-65.356-110.988-123.158-174.19-174.599l-2.176-1.716c43.964-29.19-102.753-42.941-139.56-5.623l-167.676 168.699c-16.218 17.755-26.153 41.489-26.153 67.544 0 28.87 12.198 54.892 31.721 73.192l0.055 0.051c49.122 68.59 105.624 127.609 169.412 177.781l1.843 1.397c-65.255 51.019-121.94 108.434-170.605 172.291l-1.672 2.287c-19.575 18.301-31.774 44.28-31.774 73.108 0 26.016 9.935 49.711 26.219 67.499l-0.068-0.075 168.187 168.699c17.522 16.284 41.085 26.278 66.983 26.278 28.687 0 54.51-12.262 72.513-31.831l0.064-0.070c67.728-49.201 126.003-105.755 175.428-169.515l1.45-1.944c51.036 65.81 108.918 122.75 173.522 171.215l2.333 1.675c18.046 19.676 43.872 31.965 72.568 31.965 25.911 0 49.482-10.020 67.050-26.396l-0.059 0.054 167.676-168.699c16.106-17.783 25.964-41.487 25.964-67.494 0-28.834-12.118-54.838-31.539-73.197l-0.048-0.045c-49.38-67.016-105.643-124.886-168.809-174.345l-1.935-1.459z" />
<glyph unicode="&#xe9cb;" glyph-name="link" d="M438.51 321.274c-13.628 0-27.26 5.193-37.65 15.597-97.413 97.413-97.413 255.931 0 353.349l196.608 196.608c47.186 47.186 109.941 73.171 176.685 73.171s129.478-25.988 176.687-73.17c97.413-97.413 97.413-255.931 0-353.349l-89.869-89.869c-20.794-20.794-54.509-20.794-75.311 0-20.794 20.794-20.794 54.512 0 75.311l89.869 89.869c55.89 55.89 55.89 146.835 0 202.748-27.078 27.078-63.085 41.988-101.372 41.988s-74.298-14.911-101.372-41.988l-196.608-196.605c-55.89-55.89-55.89-146.84 0-202.748 20.794-20.794 20.794-54.512 0-75.311-10.385-10.385-24.017-15.597-37.648-15.597zM249.845-63.995c-66.746 0-129.478 25.988-176.685 73.17-97.413 97.413-97.413 255.931 0 353.349l89.866 89.866c20.794 20.794 54.515 20.794 75.311 0s20.794-54.512 0-75.311l-89.866-89.866c-55.89-55.89-55.89-146.84 0-202.748 27.076-27.076 63.085-41.987 101.372-41.987s74.298 14.911 101.373 41.988l196.608 196.605c55.89 55.89 55.89 146.84 0 202.748-20.794 20.794-20.794 54.512 0 75.311 20.794 20.794 54.512 20.794 75.311-0.003 97.413-97.413 97.413-255.931 0.003-353.349l-196.611-196.608c-47.186-47.186-109.948-73.171-176.687-73.171z" />
</font>
</defs>
</svg>
